<?xml version="1.0" encoding="UTF-8" standalone="no"?>
<!DOCTYPE svg PUBLIC "-//W3C//DTD SVG 1.1//EN"
 "http://www.w3.org/Graphics/SVG/1.1/DTD/svg11.dtd">
<!-- Generated by graphviz version 2.38.0 (20140413.2041)
 -->
<!-- Title: G Pages: 1 -->
<svg width="354pt" height="276pt"
 viewBox="0.00 0.00 354.49 276.00" xmlns="http://www.w3.org/2000/svg" xmlns:xlink="http://www.w3.org/1999/xlink">
<g id="graph0" class="graph" transform="scale(1 1) rotate(0) translate(4 272)">
<title>G</title>
<polygon fill="white" stroke="none" points="-4,4 -4,-272 350.491,-272 350.491,4 -4,4"/>
<g id="clust1" class="cluster"><title>cluster_Global</title>
<path fill="none" stroke="gray" d="M157.491,-8C157.491,-8 326.491,-8 326.491,-8 332.491,-8 338.491,-14 338.491,-20 338.491,-20 338.491,-248 338.491,-248 338.491,-254 332.491,-260 326.491,-260 326.491,-260 157.491,-260 157.491,-260 151.491,-260 145.491,-254 145.491,-248 145.491,-248 145.491,-20 145.491,-20 145.491,-14 151.491,-8 157.491,-8"/>
<text text-anchor="middle" x="241.991" y="-247.2" font-family="Times,serif" font-size="11.00" fill="gray">Global</text>
</g>
<g id="clust2" class="cluster"><title>cluster_\hearot</title>
<path fill="none" stroke="gray" d="M165.491,-16C165.491,-16 318.491,-16 318.491,-16 324.491,-16 330.491,-22 330.491,-28 330.491,-28 330.491,-220 330.491,-220 330.491,-226 324.491,-232 318.491,-232 318.491,-232 165.491,-232 165.491,-232 159.491,-232 153.491,-226 153.491,-220 153.491,-220 153.491,-28 153.491,-28 153.491,-22 159.491,-16 165.491,-16"/>
<text text-anchor="middle" x="241.991" y="-219.2" font-family="Times,serif" font-size="11.00" fill="gray">hearot</text>
</g>
<g id="clust3" class="cluster"><title>cluster_\hearot\ArgoScuolaNext</title>
<path fill="none" stroke="gray" d="M173.491,-24C173.491,-24 310.491,-24 310.491,-24 316.491,-24 322.491,-30 322.491,-36 322.491,-36 322.491,-192 322.491,-192 322.491,-198 316.491,-204 310.491,-204 310.491,-204 173.491,-204 173.491,-204 167.491,-204 161.491,-198 161.491,-192 161.491,-192 161.491,-36 161.491,-36 161.491,-30 167.491,-24 173.491,-24"/>
<text text-anchor="middle" x="241.991" y="-191.2" font-family="Times,serif" font-size="11.00" fill="gray">ArgoScuolaNext</text>
</g>
<!-- \\hearot\\ArgoScuolaNext\\BadRequestException -->
<g id="node1" class="node"><title>\\hearot\\ArgoScuolaNext\\BadRequestException</title>
<polygon fill="none" stroke="black" points="314.491,-176 169.491,-176 169.491,-140 314.491,-140 314.491,-176"/>
<text text-anchor="middle" x="241.991" y="-155.2" font-family="Courier,monospace" font-size="11.00">BadRequestException</text>
</g>
<!-- \\Exception -->
<g id="node4" class="node"><title>\\Exception</title>
<ellipse fill="none" stroke="black" cx="48.7457" cy="-131" rx="48.9926" ry="18"/>
<text text-anchor="middle" x="48.7457" y="-127.3" font-family="Times,serif" font-size="14.00" fill="gray">\Exception</text>
</g>
<!-- \\hearot\\ArgoScuolaNext\\BadRequestException&#45;&gt;\\Exception -->
<g id="edge1" class="edge"><title>\\hearot\\ArgoScuolaNext\\BadRequestException&#45;&gt;\\Exception</title>
<path fill="none" stroke="black" d="M169.234,-147.869C147.836,-144.848 124.734,-141.587 104.6,-138.744"/>
<polygon fill="none" stroke="black" points="105.062,-135.275 94.6711,-137.343 104.084,-142.206 105.062,-135.275"/>
</g>
<!-- \\hearot\\ArgoScuolaNext\\LoginException -->
<g id="node2" class="node"><title>\\hearot\\ArgoScuolaNext\\LoginException</title>
<polygon fill="none" stroke="black" points="297.491,-122 186.491,-122 186.491,-86 297.491,-86 297.491,-122"/>
<text text-anchor="middle" x="241.991" y="-101.2" font-family="Courier,monospace" font-size="11.00">LoginException</text>
</g>
<!-- \\hearot\\ArgoScuolaNext\\LoginException&#45;&gt;\\Exception -->
<g id="edge2" class="edge"><title>\\hearot\\ArgoScuolaNext\\LoginException&#45;&gt;\\Exception</title>
<path fill="none" stroke="black" d="M186.444,-111.701C160.81,-115.32 130.314,-119.625 104.637,-123.25"/>
<polygon fill="none" stroke="black" points="104.102,-119.791 94.6895,-124.655 105.081,-126.722 104.102,-119.791"/>
</g>
<!-- \\hearot\\ArgoScuolaNext\\API -->
<g id="node3" class="node"><title>\\hearot\\ArgoScuolaNext\\API</title>
<polygon fill="none" stroke="black" points="268.991,-68 214.991,-68 214.991,-32 268.991,-32 268.991,-68"/>
<text text-anchor="middle" x="241.991" y="-47.2" font-family="Courier,monospace" font-size="11.00">API</text>
</g>
</g>
</svg>
